<svg xmlns="http://www.w3.org/2000/svg" version="1.1" xmlns:xlink="http://www.w3.org/1999/xlink" xmlns:svgjs="http://svgjs.dev/svgjs" width="1000" height="1000" viewBox="0 0 1000 1000"><rect width="1000" height="1000" fill="#fce44d"></rect><g transform="matrix(0.7,0,0,0.7,149.7132494197952,185.9544939271255)"><svg viewBox="0 0 275 247" data-background-color="#fce44d" preserveAspectRatio="xMidYMid meet" height="898" width="1000" xmlns="http://www.w3.org/2000/svg" xmlns:xlink="http://www.w3.org/1999/xlink"><g id="tight-bounds" transform="matrix(1,0,0,1,0.11265201365188204,-0.09999999999999432)"><svg viewBox="0 0 274.77469597269624 247.2" height="247.2" width="274.77469597269624"><g><svg viewBox="0 0 274.77469597269624 247.2" height="247.2" width="274.77469597269624"><g><svg viewBox="0 0 274.77469597269624 247.2" height="247.2" width="274.77469597269624"><g id="textblocktransform"><svg viewBox="0 0 274.77469597269624 247.2" height="247.2" width="274.77469597269624" id="textblock"><g><svg viewBox="0 0 274.77469597269624 247.2" height="247.2" width="274.77469597269624"><rect width="274.77469597269624" height="247.2" x="0" y="0" opacity="1" fill="#000000" data-fill-palette-color="tertiary"></rect><g transform="matrix(1,0,0,1,23.607599999999998,23.607599999999998)"><svg width="227.55949597269625" viewBox="4.22 -35.77 40.7 35.77" height="199.9848" data-palette-color="#fce44d"><path d="M8.5 0L4.22 0 6.93-35.77 14.11-35.77 22.95-10.79 24.32-6.13 24.8-6.13 26.15-10.79 35.01-35.77 42.21-35.77 44.92 0 40.21 0 38.31-28.08 38.11-33.2 37.65-33.2 36.23-28.32 26.56-0.73 22.24-0.73 12.48-28.27 11.01-33.2 10.55-33.2 10.4-28.13 8.5 0Z" opacity="1" transform="matrix(1,0,0,1,0,0)" fill="#fce44d" class="wordmark-text-0" data-fill-palette-color="quaternary" id="text-0"></path></svg></g></svg></g></svg></g></svg></g></svg></g><defs></defs></svg><rect width="274.77469597269624" height="247.2" fill="none" stroke="none" visibility="hidden"></rect></g></svg></g></svg>